<svg width="25" height="24" viewBox="0 0 25 24" fill="none" xmlns="http://www.w3.org/2000/svg">
<g id="Logo">
<g id="Group">
<path id="Vector" d="M24.8335 12C24.8335 17.9897 20.4451 22.9542 14.7085 23.8542V15.4687H17.5046L18.0366 12H14.7085V9.74906C14.7085 8.79984 15.1735 7.875 16.6641 7.875H18.1772V4.92187C18.1772 4.92187 16.8038 4.6875 15.4908 4.6875C12.7501 4.6875 10.9585 6.34875 10.9585 9.35625V12H7.91162V15.4687H10.9585V23.8542C5.22193 22.9542 0.833496 17.9897 0.833496 12C0.833496 5.37281 6.20631 0 12.8335 0C19.4607 0 24.8335 5.37281 24.8335 12Z" fill="#1877F2"/>
<path id="Vector_2" d="M17.5046 15.4688L18.0366 12H14.7085V9.74902C14.7085 8.80003 15.1734 7.875 16.6641 7.875H18.1772V4.92188C18.1772 4.92188 16.804 4.6875 15.4911 4.6875C12.75 4.6875 10.9585 6.34875 10.9585 9.35625V12H7.91162V15.4688H10.9585V23.8542C11.5695 23.95 12.1956 24 12.8335 24C13.4714 24 14.0975 23.95 14.7085 23.8542V15.4688H17.5046Z" fill="white"/>
</g>
</g>
</svg>
